<svg xmlns="http://www.w3.org/2000/svg" width="12" height="15" viewBox="0 0 12 15"><path d="M1.767 8.868c-.102 0-.197-.05-.256-.137-.078-.119-.065-.274.032-.378.749-.799 1.605-1.773 1.749-2.022v-2.845c0-.648.527-1.175 1.176-1.175h5.356c.648 0 1.176.527 1.176 1.175v3.229c0 .649-.528 1.176-1.176 1.176h-5.1c-.188.023-1.603.506-2.854.96l-.103.017zm2.701-5.944c-.31 0-.562.252-.562.562v2.898c0 .106 0 .271-1.076 1.474.9-.313 1.712-.579 1.895-.579h5.101c.31 0 .562-.252.562-.562v-3.23c0-.31-.253-.562-.562-.562h-5.358z"/></svg>