<svg version="1.1" id="Layer_1" xmlns="http://www.w3.org/2000/svg" x="0" y="0" viewBox="0 0 170.1 170.1" style="enable-background:new 0 0 170.1 170.1" xml:space="preserve"><style>.st0{fill:#40404a}</style><path class="st0" d="M58.8 79c0 6.9-.7 12.4-6 17.4-4.7 4.4-10.5 6-16.3 6.5-5.1.4-11.6-.3-15.9-3.3-5.9-4.2-7-10.5-7-18.4v-44l17.2 1.4v39.8c0 2.1-.1 5 1 6.9 1.1 1.9 3.9 2.7 6 2.6 2.1-.1 4.2-.9 5.8-2.3 2.2-2.1 2-5.3 2-8.2V39.8l13.3 1.1-.1 38.1zM79.9 55.8 64 55.1V41.4l16 1.3-.1 13.1zm0 42.2L64 99.3V59.6l16 .5-.1 37.9zM111.7 95.7 95.6 97V56.8L84 56.3V43l39 3.2v11.6l-11.3-.5v38.4z"/><path class="st0" d="M0 19.6h170.1v102H0l136.1-17v-68zM7.2 130.5v4.4H2v-4.4h5.2zm0 5.5v14.2H2V136h5.2zM23.1 150.2h-5.3v-9c.1-.5-.1-1-.3-1.4-.2-.2-.5-.3-.8-.3-1 0-1.4.7-1.4 2.1v8.6H10V136h4.9v2c.7-1.5 2.2-2.4 3.9-2.3.9 0 1.7.2 2.5.6.6.3 1.1.9 1.5 1.5.4 1.1.5 2.2.4 3.3v9.1zM41.6 131.1 36 150.2h-5.6l-5.8-19.1h5.8l2.9 10.4c.2.6.4 1.2.5 1.8l3.3-12.2h4.5zM48.3 131.1v19.1h-5.2v-19.1h5.2zM64.6 150.2h-5c-.1-.7-.2-1.3-.2-2-.9 1.5-2.6 2.4-4.3 2.3-1.3.1-2.6-.4-3.5-1.3-.8-.8-1.2-1.9-1.2-3 0-1.5.7-2.8 1.9-3.6 1.3-.9 3.6-1.5 6.8-1.7v-.3c.1-.5-.1-.9-.4-1.2-.3-.2-.8-.3-1.2-.3-1.2 0-1.9.5-2 1.6l-4.8-.5c.7-3 3-4.5 7-4.5 1 0 2 .1 3 .4.8.2 1.5.5 2.2 1.1.5.4.8.9 1.1 1.5.2 1 .3 2.1.3 3.1v5.7c-.1.8 0 1.8.3 2.7zm-5.5-6.7c-2.2.3-3.4 1-3.4 2.3-.1.6.4 1.2 1 1.3h.3c.5 0 1-.2 1.4-.5.5-.7.7-1.5.6-2.4v-.7zM80.4 150.2h-5c-.1-.7-.2-1.3-.2-2-.9 1.5-2.6 2.4-4.3 2.3-1.3.1-2.6-.4-3.6-1.3-.8-.8-1.2-1.9-1.2-3 0-1.5.7-2.8 1.9-3.6 1.3-.9 3.6-1.5 6.9-1.7v-.3c.1-.4-.1-.9-.4-1.2-.3-.2-.8-.3-1.2-.3-1.2 0-1.9.5-2 1.6l-4.8-.5c.7-3 3-4.5 7-4.5 1 0 2 .1 3 .4.8.2 1.5.5 2.2 1.1.5.4.8.9 1.1 1.5.2 1 .3 2.1.3 3.1v5.7c-.1.8.1 1.8.3 2.7zm-5.4-6.7c-2.2.2-3.4 1-3.4 2.3-.1.6.4 1.2 1 1.3h.3c.5 0 1-.2 1.4-.5.5-.7.7-1.5.6-2.4v-.7zM95.9 150.2h-5.3v-9c.1-.5 0-1-.3-1.4-.2-.2-.5-.3-.8-.3-1 0-1.4.7-1.4 2.1v8.6h-5.3V136h4.8v2c.7-1.5 2.2-2.4 3.9-2.3.9 0 1.7.2 2.5.6.6.4 1.1.9 1.4 1.5.4 1.1.5 2.2.4 3.3l.1 9.1zM111.7 150.2h-4.9v-1.9c-.6 1.4-2.1 2.3-3.6 2.2-1.5 0-2.9-.7-3.8-1.9-1.1-1.7-1.6-3.6-1.4-5.6-.1-1.9.4-3.8 1.4-5.4.9-1.3 2.3-2 3.8-2 1.3 0 2.5.6 3.3 1.6v-6h5.2v19zm-5.2-9.2c0-1.3-.5-1.9-1.5-1.9-.7 0-1.2.4-1.4 1.2-.2 1-.4 2-.3 3 0 2.3.6 3.5 1.7 3.5.4 0 .8-.2 1.1-.6.3-.5.5-1.1.4-1.7V141zM123.4 145.1l4.9.4c-.3 1.4-1.1 2.7-2.2 3.6-1.4 1-3.1 1.6-4.8 1.5-2 .1-4-.7-5.4-2.1-1.3-1.4-2.1-3.2-2-5.2-.1-2 .7-3.9 2-5.4 2.9-2.9 7.6-2.9 10.5-.1 1.4 1.5 2.1 3.6 2 5.6v.8h-9c0 .7.1 1.4.4 2 .4.5 1 .7 1.6.6 1 .1 1.9-.7 2-1.7zm-.4-3.7c.1-.7-.1-1.4-.6-1.9-.4-.3-.8-.5-1.3-.5-1.2 0-1.9.8-1.9 2.4h3.8zM135.4 150.2h-5V136h4.4v2.9c.5-2.1 1.7-3.2 3.5-3.2.3 0 .5 0 .8.1v5c-.3-.1-.7-.1-1-.1-1.8 0-2.6 1-2.6 3.1l-.1 6.4zM149.5 145.1l4.9.4c-.3 1.4-1.1 2.7-2.2 3.6-1.4 1-3.1 1.6-4.8 1.5-3.9.2-7.2-2.7-7.4-6.6v-.7c-.1-2 .7-3.9 2-5.4 2.9-2.9 7.6-2.9 10.5-.1 1.4 1.5 2.1 3.6 2 5.6v.8h-9c0 .7.1 1.4.4 2 .4.5 1 .7 1.6.6 1 .1 1.9-.6 2-1.7zm-.3-3.7c.1-.7-.1-1.4-.6-1.9-.4-.3-.8-.5-1.3-.5-1.2 0-1.9.8-1.9 2.4h3.8zM169.6 150.2h-5.3v-9c.1-.5-.1-1-.3-1.4-.2-.2-.5-.3-.8-.3-1 0-1.4.7-1.4 2.1v8.6h-5.3V136h4.9v2c.7-1.5 2.2-2.4 3.9-2.3.9 0 1.7.2 2.5.6.6.4 1.1.9 1.4 1.5.4 1.1.5 2.2.4 3.3v9.1z"/></svg>