<?xml version="1.0" encoding="utf-8"?>
<!-- Generator: Adobe Illustrator 25.2.3, SVG Export Plug-In . SVG Version: 6.00 Build 0)  -->
<svg version="1.1" id="Layer_1" xmlns="http://www.w3.org/2000/svg" xmlns:xlink="http://www.w3.org/1999/xlink" x="0px" y="0px"
	 viewBox="0 0 170.1 170.1" style="enable-background:new 0 0 170.1 170.1;" xml:space="preserve">
<style type="text/css">
	.st0{fill:#40404A;}
</style>
<path class="st0" d="M144.6,122.7"/>
<path class="st0" d="M58.8,79c0,6.9-0.7,12.4-6,17.4c-4.7,4.4-10.5,6-16.3,6.5c-5.1,0.4-11.6-0.3-15.9-3.3c-5.9-4.2-7-10.5-7-18.4
	V37.2l17.2,1.4v39.8c0,2.1-0.1,5,1,6.9c1.1,1.9,3.9,2.7,6,2.6c2.1-0.1,4.2-0.9,5.8-2.3c2.2-2.1,2-5.3,2-8.2V39.8l13.3,1.1L58.8,79z"
	/>
<path class="st0" d="M79.9,55.8L64,55.1V41.4L80,42.7L79.9,55.8z M79.9,98L64,99.3V59.6L80,60.1L79.9,98z"/>
<path class="st0" d="M111.7,95.7L95.6,97V56.8L84,56.3V43l39,3.2v11.6l-11.3-0.5L111.7,95.7z"/>
<polygon class="st0" points="0,19.6 170.1,19.6 170.1,121.6 0,121.6 136.1,104.6 136.1,36.6 "/>
<g>
	<path class="st0" d="M7.2,130.5v4.4H2v-4.4L7.2,130.5z M7.2,136v14.2H2V136H7.2z"/>
	<path class="st0" d="M23.1,150.2h-5.3v-9c0.1-0.5-0.1-1-0.3-1.4c-0.2-0.2-0.5-0.3-0.8-0.3c-1,0-1.4,0.7-1.4,2.1v8.6H10V136h4.9v2
		c0.7-1.5,2.2-2.4,3.9-2.3c0.9,0,1.7,0.2,2.5,0.6c0.6,0.3,1.1,0.9,1.5,1.5c0.4,1.1,0.5,2.2,0.4,3.3V150.2z"/>
	<path class="st0" d="M41.6,131.1L36,150.2h-5.6l-5.8-19.1h5.8l2.9,10.4c0.2,0.6,0.4,1.2,0.5,1.8l3.3-12.2L41.6,131.1z"/>
	<path class="st0" d="M48.3,131.1v19.1h-5.2v-19.1H48.3z"/>
	<path class="st0" d="M64.6,150.2h-5c-0.1-0.7-0.2-1.3-0.2-2c-0.9,1.5-2.6,2.4-4.3,2.3c-1.3,0.1-2.6-0.4-3.5-1.3
		c-0.8-0.8-1.2-1.9-1.2-3c0-1.5,0.7-2.8,1.9-3.6c1.3-0.9,3.6-1.5,6.8-1.7v-0.3c0.1-0.5-0.1-0.9-0.4-1.2c-0.3-0.2-0.8-0.3-1.2-0.3
		c-1.2,0-1.9,0.5-2,1.6l-4.8-0.5c0.7-3,3-4.5,7-4.5c1,0,2,0.1,3,0.4c0.8,0.2,1.5,0.5,2.2,1.1c0.5,0.4,0.8,0.9,1.1,1.5
		c0.2,1,0.3,2.1,0.3,3.1v5.7C64.2,148.3,64.3,149.3,64.6,150.2z M59.1,143.5c-2.2,0.3-3.4,1-3.4,2.3c-0.1,0.6,0.4,1.2,1,1.3
		c0.1,0,0.2,0,0.3,0c0.5,0,1-0.2,1.4-0.5c0.5-0.7,0.7-1.5,0.6-2.4V143.5z"/>
	<path class="st0" d="M80.4,150.2h-5c-0.1-0.7-0.2-1.3-0.2-2c-0.9,1.5-2.6,2.4-4.3,2.3c-1.3,0.1-2.6-0.4-3.6-1.3
		c-0.8-0.8-1.2-1.9-1.2-3c0-1.5,0.7-2.8,1.9-3.6c1.3-0.9,3.6-1.5,6.9-1.7v-0.3c0.1-0.4-0.1-0.9-0.4-1.2c-0.3-0.2-0.8-0.3-1.2-0.3
		c-1.2,0-1.9,0.5-2,1.6l-4.8-0.5c0.7-3,3-4.5,7-4.5c1,0,2,0.1,3,0.4c0.8,0.2,1.5,0.5,2.2,1.1c0.5,0.4,0.8,0.9,1.1,1.5
		c0.2,1,0.3,2.1,0.3,3.1v5.7C80,148.3,80.2,149.3,80.4,150.2z M75,143.5c-2.2,0.2-3.4,1-3.4,2.3c-0.1,0.6,0.4,1.2,1,1.3
		c0.1,0,0.2,0,0.3,0c0.5,0,1-0.2,1.4-0.5c0.5-0.7,0.7-1.5,0.6-2.4V143.5z"/>
	<path class="st0" d="M95.9,150.2h-5.3v-9c0.1-0.5,0-1-0.3-1.4c-0.2-0.2-0.5-0.3-0.8-0.3c-1,0-1.4,0.7-1.4,2.1v8.6h-5.3V136h4.8v2
		c0.7-1.5,2.2-2.4,3.9-2.3c0.9,0,1.7,0.2,2.5,0.6c0.6,0.4,1.1,0.9,1.4,1.5c0.4,1.1,0.5,2.2,0.4,3.3L95.9,150.2z"/>
	<path class="st0" d="M111.7,150.2h-4.9v-1.9c-0.6,1.4-2.1,2.3-3.6,2.2c-1.5,0-2.9-0.7-3.8-1.9c-1.1-1.7-1.6-3.6-1.4-5.6
		c-0.1-1.9,0.4-3.8,1.4-5.4c0.9-1.3,2.3-2,3.8-2c1.3,0,2.5,0.6,3.3,1.6v-6h5.2L111.7,150.2z M106.5,141c0-1.3-0.5-1.9-1.5-1.9
		c-0.7,0-1.2,0.4-1.4,1.2c-0.2,1-0.4,2-0.3,3c0,2.3,0.6,3.5,1.7,3.5c0.4,0,0.8-0.2,1.1-0.6c0.3-0.5,0.5-1.1,0.4-1.7V141z"/>
	<path class="st0" d="M123.4,145.1l4.9,0.4c-0.3,1.4-1.1,2.7-2.2,3.6c-1.4,1-3.1,1.6-4.8,1.5c-2,0.1-4-0.7-5.4-2.1
		c-1.3-1.4-2.1-3.2-2-5.2c-0.1-2,0.7-3.9,2-5.4c2.9-2.9,7.6-2.9,10.5-0.1c1.4,1.5,2.1,3.6,2,5.6c0,0.2,0,0.5,0,0.8h-9
		c0,0.7,0.1,1.4,0.4,2c0.4,0.5,1,0.7,1.6,0.6C122.4,146.9,123.3,146.1,123.4,145.1C123.4,145.1,123.4,145.1,123.4,145.1z M123,141.4
		c0.1-0.7-0.1-1.4-0.6-1.9c-0.4-0.3-0.8-0.5-1.3-0.5c-1.2,0-1.9,0.8-1.9,2.4H123z"/>
	<path class="st0" d="M135.4,150.2h-5V136h4.4v2.9c0.5-2.1,1.7-3.2,3.5-3.2c0.3,0,0.5,0,0.8,0.1v5c-0.3-0.1-0.7-0.1-1-0.1
		c-1.8,0-2.6,1-2.6,3.1L135.4,150.2z"/>
	<path class="st0" d="M149.5,145.1l4.9,0.4c-0.3,1.4-1.1,2.7-2.2,3.6c-1.4,1-3.1,1.6-4.8,1.5c-3.9,0.2-7.2-2.7-7.4-6.6
		c0-0.2,0-0.5,0-0.7c-0.1-2,0.7-3.9,2-5.4c2.9-2.9,7.6-2.9,10.5-0.1c1.4,1.5,2.1,3.6,2,5.6c0,0.2,0,0.5,0,0.8h-9
		c0,0.7,0.1,1.4,0.4,2c0.4,0.5,1,0.7,1.6,0.6C148.5,146.9,149.4,146.2,149.5,145.1C149.5,145.1,149.5,145.1,149.5,145.1z
		 M149.2,141.4c0.1-0.7-0.1-1.4-0.6-1.9c-0.4-0.3-0.8-0.5-1.3-0.5c-1.2,0-1.9,0.8-1.9,2.4H149.2z"/>
	<path class="st0" d="M169.6,150.2h-5.3v-9c0.1-0.5-0.1-1-0.3-1.4c-0.2-0.2-0.5-0.3-0.8-0.3c-1,0-1.4,0.7-1.4,2.1v8.6h-5.3V136h4.9
		v2c0.7-1.5,2.2-2.4,3.9-2.3c0.9,0,1.7,0.2,2.5,0.6c0.6,0.4,1.1,0.9,1.4,1.5c0.4,1.1,0.5,2.2,0.4,3.3V150.2z"/>
</g>
</svg>
