<svg xmlns="http://www.w3.org/2000/svg" width="147" height="35" viewBox="0 0 147 35"><path fill="#1D1D1B" d="M19.074 20.288c0 2.302-.242 4.147-2.005 5.791-1.574 1.479-3.5 2.005-5.42 2.168-1.678.145-3.874-.105-5.287-1.103-1.948-1.407-2.33-3.492-2.33-6.136v-14.651l5.724.478v13.263c0 .712-.034 1.675.34 2.318.43.664 1.29.889 2 .863.648-.04 1.44-.282 1.925-.786.725-.712.641-1.789.641-2.737v-12.516l4.412.371v12.677zM20.812 27.082l5.29-.441v-12.636l-5.29-.169zM20.812 7.76v4.573l5.29.236v-4.367zM36.646 25.854l-5.346.456v-13.421l-3.839-.169v-4.404l12.952 1.08v3.887l-3.767-.163zM-.468.494h56.507v34.022h-56.507l45.201-5.677v-22.68z"/><path fill="#777" d="M115.028 24.641c1.834 7.388 8.178 10.359 15.31 10.359 7.041 0 15.173-3.272 15.173-11.45 0-3.72-1.737-6.894-5.053-8.675-2.977-1.538-6.397-2.086-9.613-2.732-1.287-.291-3.766-.646-3.766-2.427 0-1.781 1.985-2.185 3.364-2.185 2.629 0 4.518.892 5.506 3.421l8.633-2.619c-2.082-5.905-7.79-8.333-13.686-8.333-3.373 0-6.984.646-9.762 2.579-2.729 1.934-4.363 5.205-4.363 8.528 0 8.076 7.579 9.811 13.977 11.056 1.532.287 4.161.681 4.161 2.763 0 1.883-2.686 2.085-4.021 2.085-3.022 0-5.304-1.091-6.192-4.107l-9.668 1.737zM103.728.494h-10.999l-10.559 34.008h8.474l2.085-6.691h9.069l1.93 6.691h10.657l-10.657-34.008zm-9.273 19.883l2.778-9.861 2.781 9.861h-5.559zM79.88 2.286c-2.925-1.689-6.634-1.792-9.963-1.792h-13.884v34.008h10.562v-12.339h5.298c3.275 0 6.65-.49 9.275-2.624 2.529-2.039 3.76-5.109 3.76-8.329.01-3.665-1.861-7.04-5.048-8.924zm-10.553 12.593h-2.729v-6.586h3.027c2.373 0 4.956.245 4.956 3.267.001 3.172-2.881 3.319-5.254 3.319z"/></svg>