<?xml version="1.0" encoding="UTF-8"?>
<svg width="40px" height="40px" viewBox="0 0 40 40" version="1.1" xmlns="http://www.w3.org/2000/svg" xmlns:xlink="http://www.w3.org/1999/xlink">
    <title>Vlieg-icoon_RGB</title>
    <g id="Page-1" stroke="none" stroke-width="1" fill="none" fill-rule="evenodd">
        <g id="Vlieg-icoon_RGB">
            <polygon id="kleur" fill="#FAD412" points="0 40 40 40 40 0 0 0"></polygon>
            <g id="Group" transform="translate(12.862206, 7.838081)" fill="#FFFFFF" fill-rule="nonzero">
                <path d="M15.1214958,6.97856293 C14.7551086,6.93181723 14.3966508,7.11043439 14.2133382,7.43109189 C14.0300257,7.75174939 14.0579766,8.15126761 14.2841523,8.44327664 C14.5103281,8.73528567 14.8901649,8.86225054 15.2464739,8.76494384 C15.602783,8.66763713 15.8653602,8.36523134 15.9117168,7.99879471 C15.9745477,7.49903905 15.6210861,7.04269496 15.1214958,6.97856293 L15.1214958,6.97856293 Z" id="Path"></path>
                <path d="M18.7162959,8.25632209 C18.2165462,8.19334331 17.7603236,8.54730731 17.6971526,9.04703271 C17.6339815,9.54675811 17.98777,10.0031168 18.4874711,10.0664801 C18.9871721,10.1298434 19.4436669,9.77623052 19.5072224,9.27655387 C19.57044,8.77644455 19.2163803,8.31973601 18.7162959,8.25632209 L18.7162959,8.25632209 Z" id="Path"></path>
                <path d="M5.02501122,2.34377557 C5.0250112,2.21869248 4.92361132,2.11729261 4.79852823,2.11729261 C4.67344514,2.11729261 4.57204526,2.21869248 4.57204524,2.34377557 L4.59391743,5.56392621 L2.48924843,3.18056318 C2.40644419,3.08665344 2.26318921,3.07765065 2.16927947,3.16045488 C2.07536973,3.24325911 2.06636694,3.38651409 2.14917117,3.48042383 L5.03347787,6.7450244 L1.5797887,6.19539746 C1.45779121,6.17895454 1.34499884,6.26296697 1.32581945,6.3845643 C1.30664006,6.50616163 1.38809747,6.62081283 1.50923326,6.642719 L5.50478826,7.27771803 L8.46035597,10.6234574 C6.43118129,10.0590138 0.744412202,8.24291656 0.0642576861,5.54346513 C0.0229958994,5.37987383 0.00144111055,5.21193597 2.59523705e-05,5.043227 C-0.00418109827,4.19656163 0.503112571,3.31602964 1.5162888,2.42209212 C2.73054806,1.34964931 3.83332971,0.99475541 4.79358935,1.36799373 C7.39214649,2.37481997 8.48716704,8.24503322 8.79761101,10.3285356 L5.04476674,6.08039208 C5.04584215,6.06983609 5.04584215,6.05919813 5.04476674,6.04864213 L5.02501122,2.34377557 Z M7.98834002,5.01429927 L9.78609283,1.80755417 C9.84727055,1.69825258 9.80825844,1.5600518 9.69895686,1.49887408 C9.58965527,1.43769637 9.45145449,1.47670847 9.39027677,1.58601006 L7.81547918,4.39482244 L7.16636906,1.28121053 C7.14084587,1.15866026 7.02080862,1.08000428 6.89825836,1.10552746 C6.77570809,1.13105065 6.6970521,1.2510879 6.72257529,1.37363816 L7.06124144,2.99641346 C6.49679786,2.0333316 5.80464892,1.27344943 4.96221687,0.950305478 C4.90930028,0.929844398 4.85708925,0.912205536 4.80346711,0.895272229 C5.27383676,0.560839406 5.90601358,0.310367567 6.69999755,0.14385671 C8.28537846,-0.185637231 9.4192045,0.0514290733 10.0697257,0.849411187 C10.5784305,1.47453245 10.7752802,2.39034217 10.7823358,3.42397948 C10.7971524,5.76783145 9.82630944,8.71563806 9.25057698,10.2544524 C9.08688835,9.13614853 8.70800559,6.98561848 7.98692892,5.01429927 L7.98834002,5.01429927 Z M10.0210425,12.1114718 L11.3651238,13.461903 L10.124759,14.6952123 C9.60123756,13.6495805 9.529271,12.6632154 10.0196314,12.1114718 L10.0210425,12.1114718 Z M11.4053404,16.4421651 C10.9666208,16.0053799 10.5870879,15.512936 10.2764532,14.977434 L11.5796123,13.6813305 L12.9124047,15.021884 L11.4427347,16.4837929 L11.4053404,16.4421651 Z M11.6663955,16.6919314 L13.1283044,15.2335503 L14.4610968,16.5741038 L13.2496598,17.7798964 C12.6714047,17.4961191 12.1375741,17.1296157 11.6649844,16.6919314 L11.6663955,16.6919314 Z M14.7496686,18.1693659 C14.3373389,18.1586847 13.9305984,18.0713551 13.550226,17.9118351 L14.6755854,16.7914146 L15.7282726,17.8497463 C15.486973,18.0621182 15.1574791,18.1700681 14.7482575,18.1693659 L14.7496686,18.1693659 Z M18.6478571,10.7356405 C18.1914374,10.936164 17.6738218,10.9460351 17.2100887,10.7630593 C16.7463555,10.5800834 16.3749399,10.219426 16.1784164,9.76126979 L16.0478888,9.45929248 L15.8115281,9.68930324 C14.9283176,10.5544905 13.5694577,10.7071658 12.5162747,10.059543 C11.4630918,9.41192019 10.986159,8.13038001 11.3597065,6.95179105 C11.7332541,5.7732021 12.8613137,5.00035571 14.0952661,5.07762831 C15.3292186,5.15490091 16.352049,6.06244039 16.5756436,7.27842359 L16.6363213,7.60227309 L16.918543,7.4301178 C17.5140886,7.06242312 18.2651246,7.05813869 18.8648264,7.41901485 C19.4645282,7.77989101 19.812457,8.44548767 19.7664716,9.14388529 C19.7204862,9.84228291 19.2882883,10.4565128 18.646446,10.7356405 L18.6478571,10.7356405 Z" id="Shape"></path>
            </g>
            <g id="Group" transform="translate(5.168212, 7.384728)" fill="#40404A" fill-rule="nonzero">
                <path d="M3.83960165,13.1730127 C3.82537681,13.1595273 3.80949148,13.1479097 3.7923295,13.1384405 C3.75254534,13.0024396 3.68396588,12.8765903 3.59124647,12.7694355 C3.54724596,12.7248392 3.4873816,12.699473 3.42473561,12.6988801 C3.36175714,12.7019181 3.30280841,12.7307545 3.26175253,12.7786077 C3.1629749,12.8809131 3.07830836,13.0939906 3.01198624,13.3832679 C2.90191975,12.7644966 2.72482557,12.3249362 2.48846482,12.3249362 C2.43510329,12.3287087 2.38494137,12.3517832 2.34735393,12.3898472 C2.1942486,11.8486869 1.99457669,11.5008486 1.74974928,11.5050819 C1.60158284,11.5050819 1.47387748,11.6419595 1.36592765,11.869148 C1.21917232,11.4147709 1.03361149,11.1304325 0.813478491,11.1339278 C0.72729873,11.13784 0.646469835,11.1768521 0.589817722,11.2419101 C0.212346076,11.6327872 -0.028953555,13.1278572 0.00279639652,14.8783378 C0.034546348,16.6288185 0.328762565,18.1125996 0.7203453,18.4900712 C0.777884212,18.5531697 0.858642134,18.5901094 0.94400607,18.5923766 C1.09217251,18.5923766 1.22058342,18.455499 1.32853326,18.2283105 C1.47528859,18.681982 1.66084942,18.9663205 1.88027686,18.9628252 C2.21823746,18.9564427 2.45177599,18.2741715 2.57807024,17.3400174 L2.57807024,17.3400174 C2.7615144,17.3364896 2.89909753,17.0669678 2.99293627,16.6556296 C3.08042503,17.1403455 3.20460262,17.4973561 3.34571351,17.6363503 C3.38684829,17.685403 3.44797343,17.7132035 3.51197901,17.71197 C3.57598459,17.7107364 3.6359932,17.6806015 3.67520745,17.6300003 C3.86076828,17.4380895 3.99764585,16.8538904 4.05056243,16.1017693 C4.14863451,15.7228866 4.17262336,15.1626763 4.16627337,14.8007268 C4.15569005,14.005567 4.02234026,13.3501068 3.83960165,13.1730127 Z M0.942594961,18.4569102 C0.89345413,18.4536494 0.84768829,18.4307664 0.815595155,18.3934102 C0.453645708,18.0448663 0.170012808,16.5660242 0.14037952,14.8776323 C0.110746232,13.1892404 0.340051437,11.7026371 0.688595349,11.3392766 C0.718867478,11.2997209 0.76397464,11.2742366 0.813478491,11.2687211 C0.968700476,11.2687211 1.13803355,11.5572929 1.28055556,12.0688199 C1.03220038,12.7743744 0.917195,14.0373169 0.938361634,15.2473428 C0.95670605,16.2569913 1.07100588,17.2998008 1.26715002,18.0222886 C1.16696128,18.3009826 1.05407257,18.4547935 0.942594961,18.4569102 Z M1.07594476,15.2480484 C1.05336701,13.9921614 1.17190017,12.9592297 1.34476101,12.3256417 C1.49010524,12.9528797 1.59664396,13.824945 1.61498838,14.8508212 C1.63827168,16.1074137 1.51973852,17.1410511 1.34687768,17.7739334 C1.20153345,17.1466955 1.09428917,16.2739246 1.07594476,15.2480484 Z M1.87745464,18.8273263 C1.72223266,18.8273263 1.55360514,18.5387545 1.41108313,18.0272275 C1.65943831,17.321673 1.77444369,16.0580249 1.7525715,14.847999 C1.73493264,13.8390561 1.62063281,12.7962466 1.42448867,12.0737588 C1.52538296,11.7971814 1.63615501,11.6433706 1.74974928,11.6412539 C1.91343792,11.6412539 2.09264876,11.9629867 2.24363742,12.5288414 C2.01785998,12.9366519 1.91414348,13.896206 1.93107678,14.8451768 C1.95224342,16.0171028 2.15191534,17.0147568 2.41579271,17.2701675 C2.42655459,17.2799699 2.43786146,17.2891568 2.44965932,17.2976841 C2.31842619,18.2452438 2.09899875,18.8230929 1.87745464,18.8273263 Z M2.46800374,17.1234122 C2.27679848,16.8588293 2.08629877,16.0283916 2.06513213,14.8430601 C2.04749327,13.8552838 2.15826533,13.1193905 2.29232068,12.7440355 C2.45887779,13.5596389 2.54560003,14.3895259 2.55125917,15.2219429 C2.56531147,15.8569067 2.53749938,16.4921065 2.46800374,17.1234122 L2.46800374,17.1234122 Z M2.8638198,15.2184151 C2.87016979,15.5789534 2.89345309,15.9239696 2.93014192,16.233708 C2.84900316,16.8214349 2.71424225,17.1692732 2.59641466,17.2066676 C2.67164062,16.5481487 2.70228444,15.8852992 2.68813674,15.2226484 C2.67120343,14.2581555 2.56678137,13.2640292 2.38615942,12.5464803 C2.4221427,12.4935637 2.45671487,12.4653229 2.49128704,12.4653229 C2.63663126,12.4618138 2.83348096,12.9592297 2.93578636,13.8115395 C2.87722778,14.2771441 2.85317337,14.7464411 2.8638198,15.2155929 L2.8638198,15.2184151 Z M3.02010937,15.2713317 C3.02010937,15.2529873 3.02010937,15.2346429 3.02010937,15.2162984 C3.02010937,15.0610765 3.02010937,14.9122045 3.02010937,14.7696825 C3.02010937,14.789438 3.02010937,14.8091935 3.02010937,14.828949 C3.02210937,14.9808784 3.02077603,15.1273986 3.01610937,15.2685095 L3.02010937,15.2713317 Z M3.58066315,17.5389838 C3.56559569,17.5614433 3.54032818,17.5749188 3.5132827,17.5749188 C3.48623722,17.5749188 3.46096971,17.5614433 3.44590225,17.5389838 C3.30479135,17.4049284 3.15591936,16.9322069 3.07054727,16.2294747 C3.1287407,15.7614806 3.15232321,15.2898305 3.14110271,14.8183657 C3.13545828,14.4698218 3.11217498,14.1205723 3.07478059,13.7981339 C3.14533604,13.3042458 3.25046366,12.9803963 3.36123571,12.8653909 C3.37625067,12.8426254 3.40169776,12.8289255 3.42896894,12.8289255 C3.45624012,12.8289255 3.48168721,12.8426254 3.49670217,12.8653909 C3.56384461,12.9430139 3.61492449,13.0331831 3.64698527,13.1306794 C3.36476348,13.2717903 3.30620246,14.271561 3.31678578,14.8176602 C3.33089687,15.6170534 3.46354111,16.2739246 3.64698527,16.4503132 C3.6797855,16.4853383 3.725306,16.5056827 3.77327952,16.5067576 C3.81541733,16.5050036 3.85539968,16.4876528 3.88546269,16.4580743 C3.81843501,17.0323957 3.70060741,17.4133951 3.58066315,17.5389838 Z M3.92144597,16.0749582 C3.87064604,16.2689857 3.81349613,16.3705856 3.77186842,16.3712911 C3.76041042,16.3695672 3.75005357,16.3635046 3.74294068,16.3543578 C3.61452977,16.2301802 3.46918555,15.6488033 3.4543689,14.8176602 C3.43814115,13.8842116 3.5954798,13.3409346 3.69284631,13.2654403 C3.82125723,13.6718397 3.92497374,14.3414109 3.94049594,15.1972485 C3.94472926,15.5161591 3.93696816,15.8103753 3.92003486,16.0749582 L3.92144597,16.0749582 Z" id="Shape"></path>
                <path d="M5.24962805,15.1753763 C5.23313527,14.3759831 5.07892779,13.7198174 4.86369702,13.5427232 C4.82496749,13.5078516 4.7714785,13.487766 4.71526201,13.4869844 C4.32025995,13.4926288 4.23944534,14.6038771 4.25181492,15.191604 C4.2641845,15.7793309 4.39200354,16.8849348 4.7870056,16.8793119 C5.16469024,16.8736459 5.25540052,15.8512975 5.25045269,15.2508706 C5.25045269,15.2247651 5.25045269,15.2000707 5.24962805,15.1753763 Z M4.7870056,16.745235 C4.67238078,16.745235 4.43653404,16.1998414 4.41591807,15.1930151 C4.3953021,14.1861889 4.60723431,13.630212 4.72185912,13.6288009 C4.73508405,13.6313512 4.74696328,13.6375486 4.75566932,13.6464397 C4.90657825,13.7706173 5.07562923,14.3519942 5.09294665,15.1824318 C5.11026407,16.1864358 4.89833186,16.7402961 4.7870056,16.745235 Z" id="Shape"></path>
                <path d="M22.8154893,7.43191588 C22.4491021,7.38517018 22.0906444,7.56378734 21.9073318,7.88444484 C21.7240192,8.20510234 21.7519701,8.60462056 21.9781459,8.89662959 C22.2043216,9.18863862 22.5841584,9.31560349 22.9404674,9.21829678 C23.2967765,9.12099008 23.5593537,8.81858428 23.6057103,8.45214766 C23.6685412,7.952392 23.3150797,7.49604791 22.8154893,7.43191588 L22.8154893,7.43191588 Z" id="Path"></path>
                <path d="M26.4102894,8.70967504 C25.9105397,8.64669625 25.4543171,9.00066026 25.3911461,9.50038566 C25.3279751,10.0001111 25.6817635,10.4564698 26.1814646,10.5198331 C26.6811657,10.5831963 27.1376604,10.2295835 27.201216,9.72990682 C27.2644335,9.2297975 26.9103738,8.77308896 26.4102894,8.70967504 L26.4102894,8.70967504 Z" id="Path"></path>
                <path d="M27.0325884,11.2983544 C27.9516475,10.5721539 28.1861587,9.2752501 27.5796117,8.27318352 C26.9730647,7.27111695 25.7152831,6.87749219 24.6456976,7.35501045 C24.3808758,6.41038434 23.6865229,5.64570732 22.7717449,5.2912636 C21.643114,4.84858111 20.3604897,5.09475515 19.4759464,5.92382609 C18.5914031,6.75289702 18.2627902,8.01691463 18.6315513,9.17181323 L18.5856902,9.17181323 C18.3740239,9.17181323 18.1623575,9.17957432 17.9506912,9.18804098 C18.7712511,6.58242829 19.5734665,2.81476738 18.1122632,1.01842568 C17.346031,0.0772160088 16.0661552,-0.213472436 14.2987412,0.154121447 C13.2531095,0.371432226 12.457244,0.731735379 11.9111449,1.23503091 C10.979813,1.16447546 9.97369227,1.60191923 8.91042168,2.54030669 C7.55928485,3.73339931 7.023769,4.93495859 7.31869078,6.11182346 C7.77306786,7.92227625 10.1345587,9.32280188 12.3831608,10.2710671 C10.1049254,11.150188 8.45322238,12.4893304 7.87537326,14.0401391 L6.88759699,14.504394 L5.56891567,15.1224597 L6.8967692,15.7228866 L7.7631901,16.1172915 C7.93172468,16.7325696 8.23598084,17.3022664 8.65359985,17.7845167 L7.69827908,18.9423316 C7.41528856,18.8521634 7.10814922,18.9757838 6.9665284,19.2368537 C6.82490759,19.4979236 6.88875804,19.8227924 7.11865028,20.0108442 C7.34854251,20.1988961 7.67962148,20.1970796 7.90743643,20.0065165 C8.13525137,19.8159534 8.19553327,19.4904036 8.05105632,19.2309034 L8.96827714,18.1231829 C9.2413863,18.3996367 9.53684,18.653085 9.85163135,18.8809484 L9.45017085,19.367781 C9.16706419,19.2778288 8.85998204,19.4017504 8.71860227,19.6630023 C8.5772225,19.9242542 8.64144261,20.2491108 8.87159525,20.4369154 C9.10174788,20.6247199 9.43288378,20.6224738 9.6604676,20.4315644 C9.88805143,20.2406551 9.94785883,19.9149572 9.80294809,19.6556472 L10.2262808,19.1384758 C12.2462832,20.4564515 15.2794619,21.2840669 18.6661234,21.2636059 C24.7247197,21.226917 29.6205623,18.4893657 29.6022692,15.1499763 C29.584579,13.6788952 28.6229082,12.3369306 27.0325884,11.2983544 Z M12.7190047,2.79712852 C12.7190047,2.67204543 12.6176048,2.57064556 12.4925218,2.57064556 C12.3674387,2.57064556 12.2660388,2.67204543 12.2660388,2.79712852 L12.287911,6.01727916 L10.183242,3.63391613 C10.1004377,3.54000639 9.95718274,3.5310036 9.863273,3.61380783 C9.76936326,3.69661206 9.76036047,3.83986704 9.8431647,3.93377678 L12.7274714,7.19837735 L9.27378223,6.64875041 C9.15178474,6.63230749 9.03899237,6.71631992 9.01981298,6.83791725 C9.00063359,6.95951458 9.082091,7.07416578 9.20322678,7.09607195 L13.1987818,7.73107098 L16.1543495,11.0768103 C14.1251748,10.5123667 8.43840573,8.69626951 7.75825121,5.99681808 C7.71698943,5.83322678 7.69543464,5.66528892 7.69401948,5.49657995 C7.68981243,4.64991458 8.1971061,3.76938259 9.21028233,2.87544507 C10.4245416,1.80300226 11.5273232,1.44810836 12.4875829,1.82134668 C15.08614,2.82817292 16.1811606,8.69838617 16.4916045,10.7818885 L12.7387603,6.53374503 C12.7398357,6.52318904 12.7398357,6.51255108 12.7387603,6.50199508 L12.7190047,2.79712852 Z M15.6823336,5.46765222 L17.4800864,2.26090712 C17.5412641,2.15160553 17.502252,2.01340475 17.3929504,1.95222703 C17.2836488,1.89104932 17.145448,1.93006142 17.0842703,2.03936301 L15.5094727,4.84817539 L14.8603626,1.73456348 C14.8348394,1.61201321 14.7148021,1.53335722 14.5922519,1.55888041 C14.4697016,1.5844036 14.3910456,1.70444085 14.4165688,1.82699111 L14.755235,3.44976641 C14.1907914,2.48668455 13.4986424,1.72680238 12.6562104,1.40365843 C12.6032938,1.38319735 12.5510828,1.36555848 12.4974606,1.34862518 C12.9678303,1.01419236 13.6000071,0.763720515 14.3939911,0.597209659 C15.979372,0.267715718 17.113198,0.504782022 17.7637193,1.30276414 C18.272424,1.9278854 18.4692737,2.84369512 18.4763293,3.87733243 C18.4911459,6.2211844 17.520303,9.16899101 16.9445705,10.7078053 C16.7808819,9.58950148 16.4019991,7.43897143 15.6809224,5.46765222 L15.6823336,5.46765222 Z M17.715036,12.5648247 L19.0591173,13.915256 L17.8187525,15.1485652 C17.2952311,14.1029335 17.2232645,13.1165683 17.7136249,12.5648247 L17.715036,12.5648247 Z M19.0993339,16.8955181 C18.6606143,16.4587328 18.2810814,15.9662889 17.9704467,15.430787 L19.2736058,14.1346834 L20.6063983,15.4752369 L19.1367283,16.9371458 L19.0993339,16.8955181 Z M19.360389,17.1452844 L20.8222979,15.6869033 L22.1550903,17.0274568 L20.9436533,18.2332494 C20.3653982,17.949472 19.8315677,17.5829686 19.3589779,17.1452844 L19.360389,17.1452844 Z M22.4436621,18.6227189 C22.0313324,18.6120376 21.6245919,18.5247081 21.2442195,18.3651881 L22.3695789,17.2447676 L23.4222662,18.3030993 C23.1809665,18.5154712 22.8514726,18.623421 22.442251,18.6227189 L22.4436621,18.6227189 Z M26.3418506,11.1889935 C25.8854309,11.389517 25.3678154,11.3993881 24.9040822,11.2164122 C24.440349,11.0334363 24.0689334,10.672779 23.8724099,10.2146227 L23.7418824,9.91264543 L23.5055216,10.1426562 C22.6223111,11.0078434 21.2634512,11.1605188 20.2102682,10.512896 C19.1570853,9.86527314 18.6801526,8.58373296 19.0537001,7.405144 C19.4272476,6.22655504 20.5553072,5.45370866 21.7892596,5.53098126 C23.0232121,5.60825386 24.0460425,6.51579334 24.2696371,7.73177654 L24.3303148,8.05562604 L24.6125366,7.88347075 C25.2080821,7.51577607 25.9591181,7.51149164 26.5588199,7.8723678 C27.1585217,8.23324395 27.5064505,8.89884062 27.4604651,9.59723824 C27.4144797,10.2956359 26.9822818,10.9098657 26.3404395,11.1889935 L26.3418506,11.1889935 Z" id="Shape"></path>
            </g>
        </g>
    </g>
</svg>