<?xml version="1.0" encoding="utf-8"?>
<!-- Generator: Adobe Illustrator 18.1.0, SVG Export Plug-In . SVG Version: 6.00 Build 0)  -->
<!DOCTYPE svg PUBLIC "-//W3C//DTD SVG 1.1//EN" "http://www.w3.org/Graphics/SVG/1.1/DTD/svg11.dtd">
<svg version="1.1" id="Laag_1" xmlns="http://www.w3.org/2000/svg" xmlns:xlink="http://www.w3.org/1999/xlink" x="0px" y="0px"
	 viewBox="0 0 25 25" enable-background="new 0 0 25 25" xml:space="preserve">
<path fill="#F28B05" d="M20.8,8.3c0,0.2,0,0.4,0,0.6c0,5.7-4.3,12.3-12.3,12.3c-2.4,0-4.7-0.7-6.6-1.9c0.3,0,0.7,0.1,1,0.1
	c2,0,3.9-0.7,5.4-1.8c-1.9,0-3.5-1.3-4-3c0.3,0.1,0.5,0.1,0.8,0.1c0.4,0,0.8-0.1,1.1-0.2c-2-0.4-3.5-2.1-3.5-4.2c0,0,0,0,0-0.1
	c0.6,0.3,1.2,0.5,2,0.5C3.6,9.8,2.9,8.5,2.9,7c0-0.8,0.2-1.5,0.6-2.2c2.1,2.6,5.3,4.3,8.9,4.5c-0.1-0.3-0.1-0.6-0.1-1
	c0-2.4,1.9-4.3,4.3-4.3c1.2,0,2.4,0.5,3.1,1.4c1-0.2,1.9-0.6,2.7-1c-0.3,1-1,1.9-1.9,2.4c0.9-0.1,1.7-0.3,2.5-0.7
	C22.4,6.9,21.7,7.7,20.8,8.3z"/>
</svg>
