<?xml version="1.0" encoding="utf-8"?>
<!-- Generator: Adobe Illustrator 18.1.0, SVG Export Plug-In . SVG Version: 6.00 Build 0)  -->
<!DOCTYPE svg PUBLIC "-//W3C//DTD SVG 1.1//EN" "http://www.w3.org/Graphics/SVG/1.1/DTD/svg11.dtd">
<svg version="1.1" xmlns="http://www.w3.org/2000/svg" xmlns:xlink="http://www.w3.org/1999/xlink" x="0px" y="0px"
	 viewBox="0 0 195.6 82.2" enable-background="new 0 0 195.6 82.2" xml:space="preserve">
<g id="Laag_1">
</g>
<g id="Layer_1">
	<g>
		<g>
			<path fill="#373636" d="M76.4,21.3l-6.3,18.3h-3.7l-6.3-18.3h3.4l4.8,13.9L73,21.3H76.4z"/>
			<path fill="#373636" d="M78.6,19.8l2.8-0.3h0.4v19.8h-3.2V19.8z"/>
			<path fill="#373636" d="M96,39.6c-0.5,0-1.1-0.1-1.6-0.3c-0.5-0.2-1.1-0.6-1.6-1.2c-0.6,0.4-1.1,0.8-1.6,1.1
				c-0.6,0.3-1.3,0.4-2.2,0.4c-0.7,0-1.4-0.1-2.1-0.3c-0.7-0.2-1.3-0.7-1.8-1.3c-0.5-0.7-0.8-1.6-0.8-2.9c0-1.2,0.3-2.2,1.1-2.9
				c0.8-0.7,2-1,3.9-1c0.8,0,1.7,0,2.9,0.1v-0.7c0-1-0.3-1.7-0.8-2.1c-0.5-0.4-1.2-0.6-2-0.6c-0.6,0-1.3,0.1-1.9,0.3
				c-0.7,0.2-1.3,0.4-1.9,0.7l-0.8-2.8c1.5-0.7,3.4-1.2,5.2-1.2c1.4,0,2.7,0.3,3.7,1c1,0.7,1.6,1.9,1.6,3.6v5.3
				c0,0.7,0.2,1.1,0.6,1.5c0.4,0.3,0.9,0.5,1.5,0.6L96,39.6z M92.2,33.6c-1.5,0-2.6,0-3.4,0.2c-0.8,0.2-1.2,0.6-1.2,1.4
				c0,1.2,0.8,1.8,2,1.8c0.4,0,1.1-0.1,1.6-0.4c0.6-0.4,1-1,1-2.1V33.6z"/>
			<path fill="#373636" d="M110,39.6c-0.5,0-1-0.1-1.6-0.3c-0.5-0.2-1.1-0.6-1.6-1.2c-0.6,0.4-1,0.8-1.6,1.1
				c-0.6,0.3-1.3,0.4-2.2,0.4c-0.7,0-1.4-0.1-2.1-0.3c-0.7-0.2-1.3-0.7-1.8-1.3c-0.5-0.7-0.8-1.6-0.8-2.9c0-1.2,0.3-2.2,1.1-2.9
				c0.8-0.7,2-1,3.9-1c0.8,0,1.7,0,2.9,0.1v-0.7c0-1-0.3-1.7-0.8-2.1c-0.5-0.4-1.2-0.6-2-0.6c-0.6,0-1.3,0.1-1.9,0.3
				c-0.7,0.2-1.3,0.4-1.9,0.7l-0.8-2.8c1.5-0.7,3.4-1.2,5.2-1.2c1.4,0,2.7,0.3,3.7,1c1,0.7,1.6,1.9,1.6,3.6v5.3
				c0,0.7,0.2,1.1,0.6,1.5c0.4,0.3,0.9,0.5,1.5,0.6L110,39.6z M106.2,33.6c-1.5,0-2.6,0-3.4,0.2c-0.8,0.2-1.2,0.6-1.2,1.4
				c0,1.2,0.8,1.8,2,1.8c0.4,0,1.1-0.1,1.6-0.4c0.6-0.4,1-1,1-2.1V33.6z"/>
			<path fill="#373636" d="M113.3,25.2h2.7l0.3,1.1c1.3-0.9,2.9-1.4,4.5-1.4c1.3,0,2.6,0.4,3.6,1.2c0.9,0.8,1.6,2.1,1.6,3.8v9.4
				h-3.2v-8.5c0-1.1-0.4-1.8-1-2.3c-0.6-0.5-1.4-0.7-2.2-0.7c-1.1,0-2.2,0.3-3.1,0.9v10.5h-3.2V25.2z"/>
			<path fill="#373636" d="M141.3,39.3h-2.4l-0.6-1.1c-1.1,0.8-2.2,1.3-3.8,1.3c-2,0-3.5-0.8-4.5-2.1c-1-1.3-1.5-2.9-1.5-4.7
				c0-2.7,0.8-4.7,2.1-6c1.3-1.3,3.2-2,5.4-2c0.6,0,1.3,0,2.1,0.1v-5.2l2.7-0.3h0.5V39.3z M138.1,28.2c-0.8-0.2-1.6-0.3-2.3-0.3
				c-1.2,0-2.2,0.4-2.9,1.1c-0.7,0.7-1.1,1.8-1.1,3.3c0,1.1,0.3,2.1,0.9,2.9c0.6,0.8,1.4,1.3,2.6,1.3c1,0,2-0.3,2.9-0.9V28.2z"/>
			<path fill="#373636" d="M155.2,35.6v3.1c-0.6,0.3-1.3,0.5-2,0.6c-0.7,0.1-1.4,0.2-2,0.2c-2,0-3.8-0.6-5.1-1.8
				c-1.3-1.2-2.2-3.1-2.2-5.5c0-2.4,0.8-4.2,2-5.5c1.2-1.2,2.8-1.9,4.4-1.9c0.5,0,1.3,0.1,2.1,0.3c0.8,0.3,1.7,0.8,2.4,1.8
				c0.7,0.9,1.2,2.3,1.2,4.3v2.1h-8.6c0.3,1.1,0.8,1.9,1.6,2.4c0.8,0.5,1.7,0.7,2.6,0.7c1.2,0,2.5-0.3,3.6-0.9L155.2,35.6z
				 M153,30.9c-0.1-1-0.4-1.8-0.9-2.3c-0.5-0.5-1.1-0.7-1.7-0.7c-0.7,0-1.3,0.2-1.9,0.7c-0.6,0.5-1,1.2-1.2,2.3H153z"/>
			<path fill="#373636" d="M166.7,28.7c-0.8-0.5-1.6-0.7-2.4-0.7c-1,0-2,0.4-2.9,1v10.3h-3.2V25.2h2.7l0.3,1.2
				c1-0.8,2.2-1.4,3.6-1.4c0.4,0,0.9,0,1.4,0.1c0.5,0.1,1,0.2,1.4,0.4L166.7,28.7z"/>
			<path fill="#373636" d="M178.9,35.6v3.1c-0.6,0.3-1.3,0.5-2,0.6c-0.7,0.1-1.4,0.2-2,0.2c-2,0-3.8-0.6-5.1-1.8
				c-1.3-1.2-2.2-3.1-2.2-5.5c0-2.4,0.8-4.2,2-5.5c1.2-1.2,2.8-1.9,4.4-1.9c0.5,0,1.3,0.1,2.1,0.3c0.8,0.3,1.7,0.8,2.4,1.8
				c0.7,0.9,1.2,2.3,1.2,4.3v2.1H171c0.3,1.1,0.8,1.9,1.6,2.4c0.8,0.5,1.7,0.7,2.6,0.7c1.2,0,2.5-0.3,3.6-0.9L178.9,35.6z
				 M176.7,30.9c-0.1-1-0.4-1.8-0.9-2.3c-0.5-0.5-1.1-0.7-1.7-0.7c-0.7,0-1.3,0.2-1.9,0.7c-0.6,0.5-1,1.2-1.2,2.3H176.7z"/>
			<path fill="#373636" d="M181.9,25.2h2.7l0.3,1.1c1.3-0.9,2.9-1.4,4.5-1.4c1.3,0,2.6,0.4,3.6,1.2c0.9,0.8,1.6,2.1,1.6,3.8v9.4
				h-3.2v-8.5c0-1.1-0.4-1.8-1-2.3c-0.6-0.5-1.4-0.7-2.2-0.7c-1.1,0-2.2,0.3-3.1,0.9v10.5h-3.2V25.2z"/>
		</g>
		<g>
			<path fill="#373636" d="M71.5,51.8l-2.8,8h-1.6l-2.8-8h1.2l2.3,6.8l2.3-6.8H71.5z"/>
			<path fill="#373636" d="M78.6,56.1h-5c0.1,0.9,0.4,1.6,0.9,2.1c0.5,0.5,1.1,0.7,1.8,0.7c0.7,0,1.4-0.2,2.2-0.6l0,0v1.1
				c-0.8,0.4-1.6,0.6-2.3,0.6c-1,0-1.9-0.3-2.6-1c-0.7-0.7-1.1-1.8-1.1-3.2c0-1.1,0.3-2.2,0.8-2.9c0.6-0.7,1.4-1.2,2.6-1.2
				c0.8,0,1.4,0.2,1.8,0.5c0.4,0.3,0.6,0.8,0.8,1.3c0.1,0.5,0.2,1.1,0.2,1.6V56.1z M77.4,55c0-0.6-0.1-1.2-0.3-1.6
				c-0.2-0.4-0.6-0.7-1.3-0.7c-0.6,0-1.1,0.2-1.5,0.6c-0.4,0.4-0.6,1-0.7,1.6H77.4z"/>
			<path fill="#373636" d="M80.7,51.8h0.8l0.3,0.9c0.6-0.7,1.2-1.1,2-1.1c0.2,0,0.4,0,0.7,0.1c0.2,0,0.5,0.1,0.7,0.2L84.7,53
				c-0.3-0.1-0.8-0.2-1.1-0.2c-0.7,0-1.3,0.4-1.7,1.1v6h-1.2V51.8z"/>
			<path fill="#373636" d="M86.6,48.8l1.1-0.2h0.1v3.7c0.6-0.4,1.2-0.7,2.1-0.7c1.1,0,1.9,0.4,2.5,1.2c0.6,0.7,0.9,1.8,0.9,2.9
				c0,1.1-0.3,2.2-1,3c-0.7,0.8-1.7,1.3-3.1,1.3c-1,0-1.9-0.3-2.7-0.6V48.8z M87.8,58.6c0.5,0.2,1,0.2,1.6,0.2c0.8,0,1.5-0.3,2-0.9
				c0.5-0.5,0.8-1.4,0.8-2.4c0-0.8-0.2-1.5-0.6-2c-0.4-0.5-1-0.9-1.9-0.9c-0.8,0-1.5,0.3-1.9,0.9V58.6z"/>
			<path fill="#373636" d="M100.8,56.1h-5c0.1,0.9,0.4,1.6,0.9,2.1c0.5,0.5,1.1,0.7,1.8,0.7c0.7,0,1.4-0.2,2.2-0.6l0,0v1.1
				c-0.8,0.4-1.6,0.6-2.3,0.6c-1,0-1.9-0.3-2.6-1c-0.7-0.7-1.1-1.8-1.1-3.2c0-1.1,0.3-2.2,0.8-2.9c0.6-0.7,1.4-1.2,2.6-1.2
				c0.8,0,1.4,0.2,1.8,0.5c0.4,0.3,0.6,0.8,0.8,1.3c0.1,0.5,0.2,1.1,0.2,1.6V56.1z M99.6,55c0-0.6-0.1-1.2-0.3-1.6
				c-0.2-0.4-0.6-0.7-1.3-0.7c-0.6,0-1.1,0.2-1.5,0.6c-0.4,0.4-0.6,1-0.7,1.6H99.6z"/>
			<path fill="#373636" d="M108.1,56.1h-5c0.1,0.9,0.4,1.6,0.9,2.1c0.5,0.5,1.1,0.7,1.8,0.7c0.7,0,1.4-0.2,2.2-0.6l0,0v1.1
				c-0.8,0.4-1.6,0.6-2.3,0.6c-1,0-1.9-0.3-2.6-1c-0.7-0.7-1.1-1.8-1.1-3.2c0-1.1,0.3-2.2,0.8-2.9c0.6-0.7,1.4-1.2,2.6-1.2
				c0.8,0,1.4,0.2,1.8,0.5c0.4,0.3,0.6,0.8,0.8,1.3c0.1,0.5,0.2,1.1,0.2,1.6V56.1z M107,55c0-0.6-0.1-1.2-0.3-1.6
				c-0.2-0.4-0.6-0.7-1.3-0.7c-0.6,0-1.1,0.2-1.5,0.6c-0.4,0.4-0.6,1-0.7,1.6H107z"/>
			<path fill="#373636" d="M109.9,48.8l1.1-0.2h0.1v11.2h-1.2V48.8z"/>
			<path fill="#373636" d="M119.7,59.8h-0.8l-0.2-0.7c-0.6,0.5-1.3,0.9-2.3,0.9c-1.1,0-1.9-0.5-2.5-1.3c-0.6-0.8-0.9-1.8-0.9-3
				c0-1.1,0.3-2.1,1-2.9c0.7-0.7,1.7-1.2,3.1-1.2c0.5,0,1,0.1,1.5,0.2v-3l1.1-0.2h0.1V59.8z M118.5,53c-0.5-0.2-1.1-0.3-1.6-0.3
				c-0.8,0-1.5,0.3-2,0.8c-0.5,0.5-0.8,1.3-0.8,2.3c0,0.8,0.2,1.6,0.6,2.1c0.4,0.6,1,0.9,1.9,0.9c0.8,0,1.5-0.3,1.9-0.9V53z"/>
			<path fill="#373636" d="M122.1,49.6c0-0.2,0.1-0.4,0.2-0.6c0.1-0.1,0.4-0.2,0.6-0.2c0.2,0,0.4,0.1,0.6,0.2
				c0.2,0.2,0.2,0.4,0.2,0.6c0,0.2-0.1,0.4-0.2,0.6c-0.2,0.2-0.4,0.2-0.6,0.2c-0.2,0-0.4-0.1-0.6-0.2
				C122.2,50,122.1,49.8,122.1,49.6z M122.4,51.8h1.2v8h-1.2V51.8z"/>
			<path fill="#373636" d="M126.3,51.8h0.8l0.2,0.7c0.3-0.2,0.7-0.4,1.2-0.6c0.4-0.2,0.9-0.3,1.2-0.3c0.8,0,1.5,0.2,2,0.7
				c0.5,0.5,0.8,1.2,0.8,2.4v5.1h-1.2v-5.1c0-0.8-0.2-1.3-0.5-1.6c-0.3-0.3-0.8-0.4-1.2-0.4c-0.4,0-0.8,0.1-1.1,0.2
				c-0.4,0.1-0.7,0.3-1,0.5v6.3h-1.2V51.8z"/>
			<path fill="#373636" d="M138.1,58.1c1.1,0,1.9,0.3,2.5,0.7c0.5,0.4,0.8,1,0.8,1.6c0,0.9-0.5,1.7-1.3,2.2
				c-0.8,0.6-1.8,0.9-2.8,0.9c-0.9,0-1.7-0.3-2.2-0.8c-0.5-0.5-0.8-1.1-0.8-1.8c0-0.7,0.3-1.4,1-2c-0.2-0.1-0.4-0.3-0.5-0.6
				c-0.1-0.2-0.2-0.5-0.2-0.7c0-0.4,0.2-0.9,0.6-1.4c-0.2-0.2-0.4-0.5-0.5-0.9c-0.1-0.3-0.2-0.7-0.2-1c0-0.8,0.3-1.4,0.8-1.9
				c0.5-0.5,1.3-0.8,2.1-0.8c0.6,0,1.1,0.1,1.6,0.4c0.3-0.3,0.7-0.5,1.1-0.6c0.4-0.1,0.7-0.2,1-0.2l0.4,1c-0.4,0.1-1,0.2-1.5,0.6
				c0.3,0.4,0.5,0.9,0.5,1.5c0,0.8-0.3,1.5-0.8,2c-0.5,0.5-1.3,0.8-2.2,0.8c-0.6,0-1.1-0.1-1.5-0.3c-0.2,0.2-0.3,0.4-0.3,0.7
				c0,0.4,0.3,0.7,1,0.7H138.1z M136.2,59.2c-0.4,0.5-0.7,1.1-0.7,1.7c0,0.5,0.1,0.9,0.4,1.2c0.3,0.3,0.8,0.5,1.5,0.5
				c0.8,0,1.5-0.3,2-0.6c0.5-0.4,0.8-0.9,0.8-1.4c0-0.6-0.3-0.9-0.9-1.1c-0.6-0.2-1.3-0.2-2.2-0.2H136.2z M137.4,52.7
				c-0.6,0-1.1,0.2-1.4,0.5c-0.3,0.3-0.5,0.7-0.5,1.1s0.2,0.8,0.5,1.1c0.3,0.3,0.8,0.5,1.4,0.5c0.6,0,1-0.2,1.3-0.5
				c0.3-0.3,0.4-0.7,0.4-1.1c0-0.4-0.2-0.8-0.5-1.2C138.5,52.9,138,52.7,137.4,52.7z"/>
			<path fill="#373636" d="M158.3,51.8l-2.5,8h-1.5l-1.8-6.1l-1.8,6.1h-1.5l-2.5-8h1.2l2.1,6.7l2-6.7h1.1l2,6.7l2.1-6.7H158.3z"/>
			<path fill="#373636" d="M165.3,56.1h-5c0.1,0.9,0.4,1.6,0.9,2.1c0.5,0.5,1.1,0.7,1.8,0.7c0.7,0,1.4-0.2,2.2-0.6l0,0v1.1
				c-0.8,0.4-1.6,0.6-2.3,0.6c-1,0-1.9-0.3-2.6-1c-0.7-0.7-1.1-1.8-1.1-3.2c0-1.1,0.3-2.2,0.8-2.9c0.6-0.7,1.4-1.2,2.6-1.2
				c0.8,0,1.4,0.2,1.8,0.5c0.4,0.3,0.6,0.8,0.8,1.3c0.1,0.5,0.2,1.1,0.2,1.6V56.1z M164.2,55c0-0.6-0.1-1.2-0.3-1.6
				c-0.2-0.4-0.6-0.7-1.3-0.7c-0.6,0-1.1,0.2-1.5,0.6c-0.4,0.4-0.6,1-0.7,1.6H164.2z"/>
			<path fill="#373636" d="M167.5,51.8h0.8l0.3,0.9c0.6-0.7,1.2-1.1,2-1.1c0.2,0,0.4,0,0.7,0.1c0.2,0,0.5,0.1,0.7,0.2l-0.4,1.1
				c-0.3-0.1-0.8-0.2-1.1-0.2c-0.7,0-1.3,0.4-1.7,1.1v6h-1.2V51.8z"/>
			<path fill="#373636" d="M179,60c-0.4,0-0.9-0.3-1.3-0.7c-0.5-0.4-1-0.9-1.4-1.4c-0.4-0.5-0.8-1-1.1-1.4c-0.1-0.2-0.3-0.4-0.3-0.5
				c-0.1-0.1-0.1-0.2-0.2-0.3v4.1h-1.2v-11l1.1-0.2h0.1v7l3.2-3.8h1.5l-3.3,3.9c0,0.2,0.3,0.5,0.7,1c0.4,0.4,0.9,0.9,1.3,1.4
				c0.5,0.4,1,0.8,1.4,0.9L179,60z"/>
			<path fill="#373636" d="M180,51.8h0.9v-1.4l1.1-0.2h0.1v1.7h2.2v1.1h-2.2v4c0,0.7,0.2,1.2,0.4,1.6c0.3,0.3,0.6,0.5,1,0.5
				c0.5,0,1-0.2,1.5-0.5l0.3,1.1c-0.7,0.3-1.4,0.5-2,0.5c-0.7,0-1.3-0.2-1.8-0.7c-0.5-0.5-0.7-1.3-0.7-2.4v-4H180V51.8z"/>
		</g>
		
			<rect x="7.1" y="41.1" transform="matrix(0.322 0.9467 -0.9467 0.322 73.228 -19.5803)" fill="#373636" width="86.5" height="0.4"/>
		<g>
			<path fill="#373636" d="M36.3,41.2c-2-1.5-2.9,0-4.2-0.1c-1.1-0.1-2.1-1.8-2.9-1.4c-1.6,0.8,0.6,3.6,1.6,4.2
				c0.9,0.5,1.9,1,2.2,1.1c1.3,0.6,1.8,1.5,1.9,2.9c0,0.3,0,1.1-0.1,1.4c-0.6,2.5-4.9,4.7-7.4,3c-1.2-0.8-2.2-1.8-2.6-3.7
				c-0.7-3.2-3-5.6-3.7-8.8c-0.5-1.9-0.8-3.9-1.3-5.9c-0.5-2-1-4-1.5-5.8c-0.4-1.7-1.2-4.2-1.8-5.7c-2.4-6.2-3.4-5.7-3.4-5.7
				s0.9,1.7,4,16.8c0.1,0.6,1.3,7.3,2.1,9.5c0.3,0.8,0.8,2.5,1.2,3.2c1,2.2,3.6,5.4,3.8,8.4c0.1,1.7,0.3,3.1,0.3,4.4
				c0,0.4,0.2,1.9,0.4,2.6c0.6,1.8,5.8,7.6,11.3,7.6v-4.4c-5.5,0-10.6-3.1-10.7-3.4c-0.1-0.1,0.3-2.2,0.7-3.2
				c0.7-1.8,2.1-3.4,4.4-3.6c2.6-0.2,4.2,0.6,5.6,0.6L36.3,41.2z"/>
			<path fill="#373636" d="M12.6,25.2c-0.2,3.3-5.3,7.8-6.9,10.7c-0.8,1.4-1.7,3.9-2,5.3c-0.7,3.9,0.2,6.4,1.1,8.7
				c1.7,4.1-0.2,5.5,1.1,4.7c1.6-1.3,1.4-4.4,1.3-6.4c-0.1-1.6-0.2-3.4,0-5.2c0.5-3.5,2.6-7.3,4.4-9.9C13.8,29.9,13,26.6,12.6,25.2"
				/>
			<path fill="#373636" d="M13.7,34.5c0,0,0.5,2.6-1.8,9.3c-6,17.6,5.5,19.3,8.8,23.4c0,0,1.3-1.8-4-7.5c-1.9-2.1-3.6-6.7-2.1-13.3
				C16.8,36.9,13.7,34.5,13.7,34.5"/>
			<path fill="#373636" d="M2.2,23c-0.3-1-0.4-2-0.3-2.8c0.3-4.1,4-5.8,5-6.4c0,0,1.7-1.2,1.9-2.3c0,0,1.7,4.4-2.2,6.8
				C4.6,19.6,3.2,21,2.2,23"/>
			<path fill="#373636" d="M11.7,19c0.2,0.4,1.8,2.7-4.6,8c-6.4,5.3-4.4,9-4.4,9s-6.8-3.8,1-10.3c7.8-6.5,6.2-7.8,6.2-7.8
				S11.1,17.8,11.7,19"/>
			<path fill="#373636" d="M20,21c1.1,0.1,1.8,3.6,4.3,4.3c1.9,0.5,3.9,0.3,4.3,1.4c-0.9,0.5-0.2,2,0.7,1.7C30,26.4,30.4,18.7,20,21
				z M23.4,22.6c0.1-0.2,0.2,0,0.5-0.2c0.3-0.3,0.6-0.7,1.1-0.9c0.3-0.1,0.8-0.1,1.1,0.1c0.2,0.1,0.1,0.6-0.1,0.8
				c-0.3,0.3-1.4-0.2-1.4,0.6c0,1.3,1.7,0,2.6,0C27.7,25.9,22.7,25.1,23.4,22.6z"/>
		</g>
	</g>
</g>
</svg>
